#!OML:ASF F:\VICON\USERDATA\INSTALL\rory3\rory3.ASF
:FULLY-SPECIFIED
:DEGREES
55
root -0.10323661020131404 18.198901443566378 13.893557789868929 4.239496111689866 2.869642479320535 -4.721430009325955
lfemur -39.16158049665197 0.1000022273434657 -17.090970925913386
ltibia 57.821285332987955
lfoot -3.384096684044769 -6.900179604387252
ltoes -14.762829378274724
rfemur 7.248585178703465 2.7013832949717376 34.06457075025884
rtibia 42.858286749450855
rfoot 14.204691302281063 -4.131803026045013
rtoes 4.130297185707533
lowerback 14.36438568727199 2.337242738099694 5.426980029434676
upperback -1.6273908890775814 4.155125690896387 1.799361807243654
thorax -9.372788065844201 1.7455630851753154 -2.7156873076575327
lowerneck -19.885388603988915 -5.145664857809491 -1.8952659834023096
upperneck 13.94211580793552 -6.987086644322497 2.93719942364525
head 7.736433315362087 -3.1598439693577838 0.44208552090287956
lclavicle -1.6554465512237634e-15 1.836434023693429e-15
lhumerus -66.95762310505745 -9.988744719762753 98.19668879047704
lradius 106.43891705923198
lwrist 34.730918027771516
lhand -24.43120308036316 2.956177969977291
lfingers 7.12502
lthumb 2.060747251129792 32.90346029054924
rclavicle -1.6554465512237634e-15 1.836434023693429e-15
rhumerus -40.20211108539057 12.914046042864271 -94.01093658003468
rradius 114.13786177923443
rwrist -10.274450080550144
rhand -16.204365428209535 39.769654436874426
rfingers 7.12502
rthumb 10.00229199868513 10.863678875409786
56
root -0.09331816462479936 18.282579035811942 14.228361212168359 4.13396687210354 3.164038470602725 -4.711859670876901
lfemur -37.275009449414476 -0.19882897184239123 -17.753978170077747
ltibia 50.343458540446136
lfoot -2.1409187465124364 -8.015488688063048
ltoes -15.191439983069317
rfemur 8.086892771957476 3.4169691039518035 34.03249658965946
rtibia 44.34199625241045
rfoot 17.25199150856583 -4.162347807186414
rtoes 7.662143200604655
lowerback 14.022838529444577 2.437564700685746 5.473014216098912
upperback -1.7593013774214104 4.260755941884376 1.6541670171636873
thorax -9.25773982312623 1.794807450282974 -2.927630084872642
lowerneck -19.654038114434435 -5.195708221162974 -1.9506757954401004
upperneck 14.202401748238737 -7.076168108583801 3.0125787890675806
head 7.798929289301339 -3.1943964379060548 0.4733310246051815
lclavicle -1.7670520845008163e-15 1.7559693535104424e-15
lhumerus -67.92513674485912 -8.809925882302892 97.56069030777317
lradius 107.4825040357193
lwrist 34.34170107964422
lhand -24.683764224698926 2.7198789910120524
lfingers 7.12502
lthumb 1.816847375510328 32.67383259729178
rclavicle -1.7670520845008163e-15 1.7559693535104424e-15
rhumerus -40.831023078412116 13.261542390512108 -94.31706909736353
rradius 113.73529562770514
rwrist -10.245512931962473
rhand -16.219811071309874 39.639133811655014
rfingers 7.12502
rthumb 9.987412436437618 10.793201586486797
57
root -0.08458835016836555 18.33180692219702 15.440020234194117 3.978460705823291 3.539382490110192 -4.595615621326026
lfemur -34.7513269981784 -0.20834833203162956 -18.259051715494927
ltibia 44.75644336683269
lfoot -0.9116507588042702 -8.808052193305675
ltoes -14.75557072120407
rfemur 8.834005873262146 4.0033524522949 34.022621779348626
rtibia 48.07177897616144
rfoot 19.660800044972973 -4.423552012006036
rtoes 10.943448735535133
lowerback 13.880299823142328 2.54443546595418 5.504323478665052
upperback -1.7875855838672208 4.381140544897709 1.5616603930131476
thorax -9.159217379631082 1.851147039826969 -2.948903300467084
lowerneck -19.45458326038874 -5.179682866694387 -1.9944697808305973
upperneck 14.420191543202144 -7.066715985726196 3.1218569419188227
head 7.855199612745992 -3.182458620020962 0.5236728766209618
lclavicle -1.1467146608756317e-15 2.2061078055429795e-15
lhumerus -68.06448691810462 -7.773980246981661 97.19285660590955
lradius 108.6080732263739
lwrist 33.94428793231284
lhand -24.829371905030754 2.546209277242437
lfingers 7.12502
lthumb 1.6762387407300736 32.506249826934194
rclavicle -1.1467146608756317e-15 2.2061078055429795e-15
rhumerus -41.19444217073057 13.659185784594973 -94.62568422984836
rradius 113.23497989228423
rwrist -10.118128284750858
rhand -16.271922187784796 39.549284529818415
rfingers 7.12502
rthumb 9.93718535483018 10.6892664590935
58
root -0.09310823286324296 18.327107309698686 15.907933446009855 3.7341955894148287 3.799586413388848 -4.530032438487183
lfemur -32.887362138447614 -0.09412202183193613 -18.821688716466145
ltibia 40.21743060066911
lfoot -0.25405343043477313 -9.582309510195543
ltoes -13.883845644288098
rfemur 8.751243718275767 4.344076653668458 33.85059151710969
rtibia 52.23607700966448
rfoot 20.7549010418402 -5.2344448224465765
rtoes 13.111960947506946
lowerback 13.857700018480665 2.596665623535662 5.3908555998685275
upperback -1.765322730826 4.420424976840906 1.4784633797779525
thorax -9.117642936681872 1.8753736537700187 -2.938955568600277
lowerneck -19.36554495167699 -5.170735204784214 -2.0443431752797063
upperneck 14.492204997388534 -7.06437390738267 3.2150887519208755
head 7.879203096824374 -3.1731370382306054 0.5717549755957723
lclavicle -1.0411275739760424e-15 2.282645882599589e-15
lhumerus -68.2073690726721 -7.0955811834337235 96.9745054520058
lradius 109.39878053073625
lwrist 33.49911536660552
lhand -24.911221163278377 2.357062668131555
lfingers 7.12502
lthumb 1.5972054753348368 32.32120530484731
rclavicle -1.0411275739760424e-15 2.282645882599589e-15
rhumerus -41.670456672083546 13.927375222262938 -95.04876015025528
rradius 112.48002215513073
rwrist -9.95845543368637
rhand -16.474781293052118 39.4656965826251
rfingers 7.12502
rthumb 9.741512620888633 10.504123339238145
